<svg xmlns="http://www.w3.org/2000/svg" viewBox="0 0 220 100">
  <defs>
    <linearGradient id="hull" x1="0" y1="0" x2="0" y2="1"><stop offset="0" stop-color="#e4e8f0"/><stop offset="1" stop-color="#8a92a6"/></linearGradient>
    <linearGradient id="glow" x1="0" y1="0" x2="1" y2="0"><stop offset="0" stop-color="#ff5a3c"/><stop offset="1" stop-color="#ffb07a"/></linearGradient>
    <radialGradient id="warp"><stop offset="0" stop-color="#cfe6ff"/><stop offset="1" stop-color="#3d7bff" stop-opacity="0"/></radialGradient>
  </defs>
  <!-- nacelles and pylons -->
  <path d="M70 52 L92 30 L100 30 L82 54 Z" fill="#9aa2b4"/>
  <path d="M70 58 L92 80 L100 80 L82 56 Z" fill="#7d8598"/>
  <rect x="18" y="22" width="92" height="12" rx="6" fill="url(#hull)"/>
  <rect x="18" y="76" width="92" height="12" rx="6" fill="url(#hull)"/>
  <rect x="104" y="23" width="8" height="10" rx="4" fill="url(#glow)"/>
  <rect x="104" y="77" width="8" height="10" rx="4" fill="url(#glow)"/>
  <rect x="24" y="26" width="70" height="4" rx="2" fill="#6fa8ff"/>
  <rect x="24" y="80" width="70" height="4" rx="2" fill="#6fa8ff"/>
  <!-- engineering hull and neck -->
  <path d="M40 48 Q40 62 64 62 L128 60 Q134 55 128 50 L64 48 Z" fill="url(#hull)"/>
  <circle cx="128" cy="55" r="5" fill="url(#warp)"/>
  <path d="M118 56 L150 52 L156 56 L124 60 Z" fill="#a9b0c0"/>
  <!-- saucer, seen edge-on -->
  <ellipse cx="176" cy="50" rx="42" ry="11" fill="url(#hull)"/>
  <ellipse cx="176" cy="46" rx="16" ry="4" fill="#f4f6fa"/>
  <path d="M136 52 Q176 60 216 52" stroke="#5c6478" stroke-width="1.5" fill="none"/>
  <g fill="#fff6d8"><circle cx="150" cy="50" r="1"/><circle cx="160" cy="51" r="1"/><circle cx="170" cy="51.5" r="1"/><circle cx="182" cy="51.5" r="1"/><circle cx="192" cy="51" r="1"/><circle cx="202" cy="50" r="1"/></g>
</svg>
