<svg xmlns="http://www.w3.org/2000/svg" viewBox="0 0 200 100"><defs><radialGradient id="p" cx="0.4" cy="0.3" r="0.8"><stop offset="0" stop-color="#b6bec8"/><stop offset="0.6" stop-color="#959ea9"/><stop offset="1" stop-color="#959ea9" stop-opacity="0.6"/></radialGradient><linearGradient id="b" gradientUnits="userSpaceOnUse" x1="0" y1="10" x2="0" y2="88"><stop offset="0.45" stop-color="#57606b" stop-opacity="0"/><stop offset="1" stop-color="#57606b" stop-opacity="0.85"/></linearGradient><clipPath id="c"><circle cx="92" cy="40" r="30"/><circle cx="122" cy="46" r="26"/><circle cx="62" cy="56" r="24"/><circle cx="148" cy="58" r="22"/><circle cx="40" cy="68" r="18"/><circle cx="170" cy="70" r="16"/><circle cx="110" cy="66" r="22"/><circle cx="78" cy="70" r="20"/><circle cx="138" cy="72" r="18"/><circle cx="55" cy="76" r="14"/><circle cx="160" cy="78" r="12"/><circle cx="96" cy="76" r="16"/><rect x="26" y="66" width="158" height="22" rx="11"/></clipPath><filter id="s" x="-10%" y="-15%" width="120%" height="130%"><feGaussianBlur stdDeviation="1.6"/></filter><filter id="d" x="-20%" y="-20%" width="140%" height="140%"><feGaussianBlur stdDeviation="4"/></filter></defs><g filter="url(#s)"><g fill="#959ea9"><circle cx="92" cy="40" r="30"/><circle cx="122" cy="46" r="26"/><circle cx="62" cy="56" r="24"/><circle cx="148" cy="58" r="22"/><circle cx="40" cy="68" r="18"/><circle cx="170" cy="70" r="16"/><circle cx="110" cy="66" r="22"/><circle cx="78" cy="70" r="20"/><circle cx="138" cy="72" r="18"/><circle cx="55" cy="76" r="14"/><circle cx="160" cy="78" r="12"/><circle cx="96" cy="76" r="16"/><rect x="26" y="66" width="158" height="22" rx="11"/></g><g clip-path="url(#c)"><circle cx="92" cy="40" r="30" fill="url(#p)"/><circle cx="122" cy="46" r="26" fill="url(#p)"/><circle cx="62" cy="56" r="24" fill="url(#p)"/><circle cx="148" cy="58" r="22" fill="url(#p)"/><circle cx="110" cy="66" r="22" fill="url(#p)"/><circle cx="40" cy="68" r="18" fill="url(#p)"/><circle cx="170" cy="70" r="16" fill="url(#p)"/><circle cx="78" cy="70" r="20" fill="url(#p)"/><circle cx="138" cy="72" r="18" fill="url(#p)"/><circle cx="55" cy="76" r="14" fill="url(#p)"/><circle cx="96" cy="76" r="16" fill="url(#p)"/><circle cx="160" cy="78" r="12" fill="url(#p)"/><g fill="#858e99" opacity="0.5" filter="url(#d)"><ellipse cx="98" cy="67.6" rx="24" ry="8.4"/><ellipse cx="127.2" cy="69.92" rx="20.8" ry="7.28"/><ellipse cx="66.8" cy="78.08" rx="19.2" ry="6.72"/><ellipse cx="152.4" cy="78.24" rx="17.6" ry="6.16"/><ellipse cx="114.4" cy="86.24" rx="17.6" ry="6.16"/><ellipse cx="43.6" cy="84.56" rx="14.4" ry="5.04"/><ellipse cx="173.2" cy="84.72" rx="12.8" ry="4.48"/><ellipse cx="82" cy="88.4" rx="16" ry="5.6"/><ellipse cx="141.6" cy="88.56" rx="14.4" ry="5.04"/><ellipse cx="57.8" cy="88.88" rx="11.2" ry="3.92"/><ellipse cx="99.2" cy="90.72" rx="12.8" ry="4.48"/><ellipse cx="162.4" cy="89.04" rx="9.6" ry="3.36"/></g><rect x="0" y="0" width="200" height="100" fill="url(#b)"/></g></g></svg>
